# xmcd
#
# Track frame offsets:
#	150
#	14523
#	28233
#	40285
#	52668
#	64980
#	77565
#	89119
#	99821
#	111139
#	121805
#	133187
#	142065
#	154591
#	167246
#	182377
#	194855
#	205544
#
# Disc length: 2913 seconds
#
# Revision: 1
# Processed by: cddbd v1.5.1PL2 Copyright (c) Steve Scherf et al.
# Submitted via: dBpowerAMP V4.0
#
DISCID=f80b5f12
DTITLE=Big Joe Turner 3 - 4 - Rocks In My Bed
DYEAR=1900
DGENRE=Jazz
TTITLE0=Nobody In Mind
TTITLE1=Back Breaking Blues
TTITLE2=Empty Pocket Blues
TTITLE3=Hollywood Bed (Cherry Red Blues)
TTITLE4=Radar Blues
TTITLE5=Tell My Pretty Baby
TTITLE6=Wine-O-Baby Boogie
TTITLE7=Jumpin' Tonight (Midnight Rockin')
TTITLE8=Lucille
TTITLE9=Love Me Baby (Little Bitty Baby)
TTITLE10=Blues Jump The Rabbit
TTITLE11=The Sun Is Shining
TTITLE12=Jumpin' At The Jubilee
TTITLE13=Still In The Dark
TTITLE14=Chains Of Love
TTITLE15=The Chill Is On
TTITLE16=Bump Miss Susie
TTITLE17=Sweet Sixteen
EXTD=typo corrections
EXTT0=
EXTT1=
EXTT2=
EXTT3=
EXTT4=
EXTT5=
EXTT6=
EXTT7=
EXTT8=
EXTT9=
EXTT10=
EXTT11=
EXTT12=
EXTT13=
EXTT14=
EXTT15=
EXTT16=
EXTT17=
PLAYORDER=
